<?xml version="1.0" encoding="UTF-8"?>
<svg version="1.1" xmlns="http://www.w3.org/2000/svg" width="1024" height="293">
<path d="M0 0 C337.92 0 675.84 0 1024 0 C1024 96.69 1024 193.38 1024 293 C686.08 293 348.16 293 0 293 C0 196.31 0 99.62 0 0 Z " fill="#FEFCF7" transform="translate(0,0)"/>
<path d="M0 0 C2.81358134 1.35263059 4.74524424 2.52985035 6.8359375 4.859375 C7.39095947 5.46652344 7.94598145 6.07367188 8.51782227 6.69921875 C9.13069092 7.37597656 9.74355957 8.05273438 10.375 8.75 C17.96794801 16.93598806 25.70287356 24.98118797 33.53717041 32.93615723 C34.88422877 34.30883093 36.22570843 35.68700221 37.5614624 37.07067871 C39.4654484 39.04094738 41.38822417 40.99094131 43.31640625 42.9375 C43.88578415 43.53467834 44.45516205 44.13185669 45.04179382 44.74713135 C48.84280259 48.52913873 51.44271255 49.82963358 57 50 C59.74988186 49.78763289 62.40303607 49.51457476 65.125 49.125 C78.29231285 47.32715536 91.35338055 46.80005299 104.625 46.8125 C105.41892151 46.8117749 106.21284302 46.8110498 107.03082275 46.81030273 C117.50230106 46.81135793 127.73804866 47.22888807 138.13671875 48.52734375 C148.5011662 50.17746106 148.5011662 50.17746106 158.35546875 47.71484375 C160.44572855 45.93994229 162.19996737 44.06670413 164 42 C165.34912137 40.68231447 166.70336699 39.36985652 168.0625 38.0625 C170.47054294 35.66499554 172.71016392 33.172596 174.9140625 30.58984375 C179.86039267 24.90759777 185.20172257 19.61223891 190.52661133 14.28808594 C192.33118167 12.48129534 194.1275612 10.66660404 195.92382812 8.8515625 C197.0698243 7.70263784 198.21629122 6.55418248 199.36328125 5.40625 C199.89971756 4.86262817 200.43615387 4.31900635 200.98884583 3.75891113 C204.77113346 0 204.77113346 0 207 0 C207.07665606 7.45232482 207.12885207 14.90454632 207.16479492 22.35717773 C207.1797939 24.88748982 207.20019973 27.41777631 207.22631836 29.94799805 C207.2630947 33.60471962 207.27981593 37.26109467 207.29296875 40.91796875 C207.30845261 42.03205612 207.32393646 43.14614349 207.33988953 44.29399109 C207.34190482 53.90062613 206.04364951 63.18938232 201.75 71.875 C199.78546292 76.07713722 199.70059724 78.41387262 201 83 C201.77949164 85.02556072 202.57273034 87.04585257 203.375 89.0625 C211.22687023 108.90714033 211.3449564 129.98684842 211 151 C209.63681641 151.4021875 209.63681641 151.4021875 208.24609375 151.8125 C184.19718075 159.31082775 167.44380007 172.02785598 155.58764648 194.57983398 C149.71765356 205.64117322 149.71765356 205.64117322 145 208 C135.15775395 208.872641 127.21818036 207.99563524 119.265625 201.90625 C115.14039476 198.32946078 111.34514005 195.01621483 109 190 C109.40730346 186.56040441 110.69908927 184.9582277 113.16796875 182.609375 C113.81443359 181.98160156 114.46089844 181.35382813 115.12695312 180.70703125 C115.80693359 180.06121094 116.48691406 179.41539062 117.1875 178.75 C119.84496811 176.21438652 122.43665051 173.63050858 125 171 C125.59409668 170.46052734 126.18819336 169.92105469 126.80029297 169.36523438 C133.08404617 162.76177817 131.81945043 153.51699364 131.75 145 C131.75145106 142.56802805 131.76149791 140.13648141 131.78131104 137.70458984 C131.79136493 136.19973907 131.79001549 134.69474926 131.77484131 133.18994141 C131.77848998 128.1588639 132.62461163 123.8431084 134 119 C135.84375 118.35546875 135.84375 118.35546875 138 118 C140.5 120.3125 140.5 120.3125 143 123 C146.62068398 125.62187461 150.69170753 125.52351761 155 125 C157.97409721 123.94254321 159.42599533 123.06635178 160.93359375 120.265625 C162.69400366 115.91934981 163.42990873 111.65574541 164 107 C166.17947652 104.82052348 171.55891199 105.54662271 174.62890625 105.39453125 C178.10944277 105.5029448 178.10944277 105.5029448 181 104 C181.0979057 102.50261876 181.12974864 101.00057108 181.125 99.5 C181.12757813 98.6853125 181.13015625 97.870625 181.1328125 97.03125 C181.2245178 95.00469623 181.2245178 95.00469623 180 94 C162.76324155 92.70047247 142.88156332 92.89937055 128.7578125 104.1640625 C122.43273663 110.77025286 120.98748157 119.10233358 120.71875 127.921875 C120.68136719 129.03046875 120.64398438 130.1390625 120.60546875 131.28125 C120.57066406 132.4259375 120.53585938 133.570625 120.5 134.75 C120.25988005 142.54055827 119.90493153 150.25536752 119 158 C114.60343827 158.02465504 110.2069128 158.04283842 105.81030273 158.05493164 C104.31355082 158.05997121 102.81680384 158.06680287 101.32006836 158.07543945 C99.17300193 158.08752159 97.02600038 158.09323191 94.87890625 158.09765625 C93.5854126 158.10289307 92.29191895 158.10812988 90.95922852 158.11352539 C88 158 88 158 87 157 C86.81740014 154.39322953 86.69378093 151.80573911 86.60546875 149.1953125 C86.53657465 147.56246744 86.46688612 145.92965575 86.39648438 144.296875 C86.29000418 141.72575608 86.18851225 139.15485708 86.10131836 136.58300781 C85.7081649 125.31187847 85.05951129 115.51982117 78.9375 105.6875 C64.35580312 92.3467986 44.49993966 93.53707287 26 94 C26 97.63 26 101.26 26 105 C30.95 105.33 35.9 105.66 41 106 C43 112 43 112 43.74609375 114.44921875 C44.08833984 115.55716797 44.08833984 115.55716797 44.4375 116.6875 C44.66308594 117.43386719 44.88867188 118.18023437 45.12109375 118.94921875 C46.41685034 121.9726508 48.08087218 123.54043609 51 125 C55.73981526 125.57825746 59.11997823 125.47260429 63.375 123.1875 C65.91595968 121.15055938 65.91595968 121.15055938 67.6875 119.25 C69 118 69 118 72 118 C73.57847393 120.80528568 74.25122988 122.83269415 74.27124023 126.04663086 C74.28652016 127.2232151 74.28652016 127.2232151 74.30210876 128.42356873 C74.30424881 129.26218948 74.30638885 130.10081024 74.30859375 130.96484375 C74.33375008 132.75195644 74.35914816 134.53906574 74.38476562 136.32617188 C74.41351491 139.13500111 74.43754188 141.94377161 74.45629883 144.75268555 C74.47797652 147.46954348 74.51741211 150.18572164 74.55859375 152.90234375 C74.55876747 154.15723854 74.55876747 154.15723854 74.5589447 155.43748474 C74.66560863 161.73508594 76.31477157 165.41744309 80.63671875 170.05078125 C81.12817383 170.58098877 81.61962891 171.11119629 82.12597656 171.6574707 C82.6412793 172.20363037 83.15658203 172.74979004 83.6875 173.3125 C84.21698242 173.8799292 84.74646484 174.4473584 85.29199219 175.03198242 C89.43309569 179.44995473 93.66094256 183.77579997 98 188 C92.42261113 197.31677459 86.50653557 203.94201293 75.9453125 207.33984375 C70.10809398 208.64818583 63.90094988 209.59552243 58.5 206.625 C54.81406154 202.75476462 52.76637601 198.24524489 50.375 193.5 C39.89330405 173.60887542 23.89375986 160.06058709 2.31787109 153.13964844 C-0.11639853 152.407183 -2.55403729 151.69230613 -5 151 C-5.71515473 103.2991795 -5.71515473 103.2991795 5.30078125 82.921875 C7.16386774 77.80098922 5.71337148 73.63982011 3.5625 68.875 C1.07540216 63.30560142 -0.12660132 59.24941783 -0.11352539 53.12988281 C-0.11341209 51.35849945 -0.11341209 51.35849945 -0.11329651 49.55133057 C-0.10813522 48.28142273 -0.10297394 47.01151489 -0.09765625 45.703125 C-0.0962413 44.39921814 -0.09482635 43.09531128 -0.09336853 41.75189209 C-0.08955867 38.29296945 -0.07974151 34.83408909 -0.06866455 31.37518311 C-0.05841746 27.84257581 -0.05386385 24.30996164 -0.04882812 20.77734375 C-0.03811782 13.85154518 -0.02105984 6.92577462 0 0 Z " fill="#FCFBF5" transform="translate(105,36)"/>
<path d="M0 0 C6.88400277 4.77512067 12.57005292 11.55455894 18.38613701 17.55549431 C21.2794481 20.53425361 24.19300353 23.49314056 27.10351562 26.45507812 C30.78714363 30.20478278 34.46413271 33.96024719 38.11645508 37.74047852 C41.08864363 40.81567358 44.0824655 43.86825132 47.09196663 46.90692329 C48.22873805 48.06276201 49.35744096 49.22659658 50.47756767 50.39857292 C56.19178417 56.76139711 56.19178417 56.76139711 63.51126099 60.73123169 C65.81981701 60.77164718 67.75619034 60.52345421 70 60 C76.46625673 59.03661481 82.66603095 58.85541754 89.1953125 58.8671875 C90.37858124 58.86623077 91.56184998 58.86527405 92.78097534 58.86428833 C95.28741509 58.86360889 97.79385662 58.86544669 100.30029297 58.86962891 C104.06351892 58.87491366 107.82662183 58.86971073 111.58984375 58.86328125 C114.04166692 58.86394337 116.49349002 58.86522728 118.9453125 58.8671875 C120.03989777 58.86516327 121.13448303 58.86313904 122.26223755 58.86105347 C123.90771072 58.86578171 123.90771072 58.86578171 125.58642578 58.87060547 C126.73114853 58.8650766 127.87587128 58.85954773 129.05528259 58.85385132 C132.13729678 58.96803752 134.9876731 59.24862328 138.02784729 59.68057251 C148.45208859 61.15694772 148.45208859 61.15694772 158.09875488 57.80545044 C162.10611861 54.67446266 165.47696858 50.98129935 168.88671875 47.2265625 C170.16971079 45.89988331 171.45781021 44.57812639 172.75068665 43.26107788 C176.1102775 39.81262643 179.39889803 36.30391624 182.67553711 32.77679443 C186.03613319 29.18263672 189.45830843 25.64821081 192.87695312 22.109375 C196.70978388 18.13593762 200.53530599 14.15704711 204.3165741 10.13442993 C204.88784531 9.52726639 205.45911652 8.92010284 206.04769897 8.29454041 C207.11436836 7.15861411 208.17868344 6.02047076 209.24021912 4.87974548 C213.68549153 0.1460565 213.68549153 0.1460565 217.8125 -0.3125 C221.7307645 0.07164358 223.21293267 1.29256317 226 4 C227.5320307 7.06406139 227.16492012 10.2767308 227.17700195 13.63989258 C227.18357315 14.42884918 227.19014435 15.21780579 227.19691467 16.03067017 C227.21668203 18.65195817 227.22832465 21.27318847 227.23828125 23.89453125 C227.24235678 24.79217382 227.2464323 25.6898164 227.25063133 26.61466026 C227.27151759 31.37583563 227.28580203 36.13698205 227.29516602 40.89819336 C227.30616979 45.78911982 227.34049166 50.67958365 227.38033772 55.57034779 C227.40665669 59.35136179 227.41487185 63.1322688 227.41844749 66.91336632 C227.42328276 68.71406833 227.43480805 70.51476656 227.45348549 72.31537819 C227.56859347 84.15921929 226.55494271 93.67800699 221.84486389 104.70413208 C220.77094305 107.62244878 221.20246487 108.84445406 222.265625 111.73046875 C222.57886719 112.61669922 222.89210938 113.50292969 223.21484375 114.41601562 C223.55644531 115.33060547 223.89804687 116.24519531 224.25 117.1875 C230.42334214 134.13369017 231.18678998 150.19854418 231.18530273 168.09155273 C231.1875178 171.08656449 231.20580701 174.08122367 231.22460938 177.07617188 C231.2275387 178.97916541 231.22952658 180.88216069 231.23046875 182.78515625 C231.23765427 183.68089859 231.24483978 184.57664093 231.25224304 185.49952698 C231.24916641 186.32476364 231.24608978 187.15000031 231.24291992 188.00024414 C231.24434494 188.72651505 231.24576996 189.45278595 231.24723816 190.20106506 C231 192 231 192 229 194 C226.8052432 194.59429072 224.59321047 195.1253189 222.375 195.625 C203.97755637 200.1818364 185.34934114 211.29328728 175.33203125 227.671875 C174.14700221 229.69100736 172.97391806 231.7171947 171.8125 233.75 C170.64052958 235.79166213 169.45981971 237.82833775 168.26953125 239.859375 C167.76010986 240.75108398 167.25068848 241.64279297 166.72583008 242.56152344 C163.91956301 246.5265815 160.52990033 248.95938555 156.0625 250.75 C151.97589701 252.70181038 150.14728203 255.18406465 147.609375 258.84765625 C140.07147564 268.92868185 129.19494327 274.04832896 117 276 C101.57607459 277.32531074 87.11041978 276.68749895 74.3515625 267.06640625 C70.9407815 264.06922494 67.95300805 260.78258323 65.0078125 257.33203125 C64.34523438 256.56246094 63.68265625 255.79289063 63 255 C62.41992188 254.32324219 61.83984375 253.64648438 61.2421875 252.94921875 C59.11983707 251.10417892 57.6733537 250.39252833 55.1328125 249.328125 C49.86657657 246.82550431 47.69101692 242.67613202 44.875 237.75 C43.89665136 236.09692816 42.91490028 234.44586509 41.9296875 232.796875 C41.44959229 231.99241943 40.96949707 231.18796387 40.47485352 230.35913086 C28.92568987 211.88543969 11.1158619 200.31601747 -9.875 195.125 C-10.82117188 194.92132813 -11.76734375 194.71765625 -12.7421875 194.5078125 C-15 194 -15 194 -17 193 C-18.86243288 186.51044618 -18.24451831 179.39327788 -18.25 172.6875 C-18.25067474 171.95201935 -18.25134949 171.2165387 -18.25204468 170.45877075 C-18.22266474 150.23631275 -16.38625373 131.08717203 -8.87109375 112.15625 C-7.10328691 107.3632005 -6.71563783 104.74207461 -8.6875 99.9375 C-9.25017578 98.83728516 -9.25017578 98.83728516 -9.82421875 97.71484375 C-13.91556241 88.26805358 -13.34418183 78.1341111 -13.37109375 68.05078125 C-13.38007329 66.30681792 -13.38919535 64.56285531 -13.39845276 62.81889343 C-13.41487106 59.1786411 -13.42263085 55.53848003 -13.42553711 51.89819336 C-13.43094117 47.24090867 -13.46873453 42.58448291 -13.51428127 37.9274416 C-13.54404615 34.33199427 -13.55126039 30.73675511 -13.55226326 27.1411953 C-13.55645973 25.42401342 -13.56887108 23.70683059 -13.58978081 21.98977089 C-13.61671047 19.58929636 -13.61186893 17.19083283 -13.59936523 14.7902832 C-13.61419952 14.08728592 -13.62903381 13.38428864 -13.64431763 12.6599884 C-13.5616158 7.06987362 -11.80903008 4.79146484 -8 1 C-4.98221063 -0.50889469 -3.37677363 -0.50026276 0 0 Z M4 28 C3.90668545 35.48526591 3.83592708 42.97047034 3.79275131 50.4561882 C3.77201272 53.93340578 3.74395272 57.41022096 3.69824219 60.88720703 C3.64584276 64.89879882 3.6269417 68.90997823 3.609375 72.921875 C3.58872986 74.15049255 3.56808472 75.37911011 3.54681396 76.6449585 C3.54454665 85.50276295 5.02753232 93.2329464 9.11273193 101.15887451 C10.43927291 103.91151321 10.2831845 105.97439716 10 109 C8.828125 112.234375 8.828125 112.234375 7.25 115.75 C4.80727795 121.48414363 3.02949303 127.16337902 1.6875 133.25 C1.52862305 133.95737305 1.36974609 134.66474609 1.20605469 135.39355469 C-0.96529733 145.76355013 -1.13957905 156.12766997 -1.0625 166.6875 C-1.05798828 167.87794922 -1.05347656 169.06839844 -1.04882812 170.29492188 C-1.03717452 173.19666936 -1.02081559 176.09830626 -1 179 C-0.09121094 179.268125 0.81757812 179.53625 1.75390625 179.8125 C27.54466133 187.85392517 44.31989145 202.16139593 57 226 C57.33306152 226.64018066 57.66612305 227.28036133 58.00927734 227.93994141 C59.89084041 231.43270168 61.42738719 234.14383804 65 236 C73.0248315 237.32356062 80.89922171 235.87692129 88 232 C94.26094801 227.42571076 98.37542486 222.77853347 102 216 C101.5467334 215.55197021 101.0934668 215.10394043 100.62646484 214.64233398 C98.53991414 212.5767924 96.45744503 210.50718048 94.375 208.4375 C93.66214844 207.73302734 92.94929688 207.02855469 92.21484375 206.30273438 C78.90122268 193.05018496 78.90122268 193.05018496 78.75390625 181.09765625 C78.7209738 179.30272939 78.68776206 177.50780763 78.65429688 175.71289062 C78.60685347 172.88423096 78.56240426 170.05559289 78.52319336 167.22680664 C78.48347226 164.49604029 78.43193536 161.76569205 78.37890625 159.03515625 C78.3704921 158.19026138 78.36207794 157.34536652 78.35340881 156.47486877 C78.33676682 155.6840239 78.32012482 154.89317902 78.30297852 154.07836914 C78.28751732 153.03937218 78.28751732 153.03937218 78.27174377 151.97938538 C77.95455635 149.6689878 77.13650224 148.02159346 76 146 C71.61414969 146.50605965 69.21747902 149.20219215 66 152 C63.67404054 153.16297973 62.21276769 153.16600691 59.625 153.1875 C58.46871094 153.20876953 58.46871094 153.20876953 57.2890625 153.23046875 C54.72740422 152.97255435 53.17033843 152.37049388 51 151 C48.14973139 146.61497137 47.29390961 142.14583799 46.4296875 137.07421875 C46.20182695 135.01883705 46.20182695 135.01883705 45 134 C42.47403741 133.76346477 39.96892793 133.57826308 37.4375 133.4375 C36.72658203 133.39431641 36.01566406 133.35113281 35.28320312 133.30664062 C33.52238088 133.20028223 31.7612168 133.09961154 30 133 C30 129.37 30 125.74 30 122 C69.09354676 121.02175555 69.09354676 121.02175555 82.9375 133.6875 C89.52684373 144.27038538 89.77760357 155.03479717 90.1875 167.125 C90.28820002 169.68023304 90.39382363 172.23516622 90.50398254 174.79000854 C90.57060236 176.36895136 90.63093848 177.94817437 90.68437195 179.52761841 C90.5069579 183.06103958 90.5069579 183.06103958 92 186 C94.29151417 186.08790975 96.58572524 186.10694038 98.87890625 186.09765625 C99.5655687 186.0962413 100.25223114 186.09482635 100.95970154 186.09336853 C103.16067801 186.08775479 105.36155409 186.07520007 107.5625 186.0625 C109.05143083 186.05748676 110.54036324 186.05292355 112.02929688 186.04882812 C115.68623075 186.03778093 119.34310558 186.02050713 123 186 C124.03649467 177.19166176 124.30841852 168.40614729 124.51757812 159.54492188 C124.84411051 149.04043657 125.66735859 140.04469543 133 132 C144.89068715 122.5899562 158.95331983 121.81696803 173.5 121.875 C174.5003125 121.87113281 175.500625 121.86726563 176.53125 121.86328125 C177.48 121.86457031 178.42875 121.86585938 179.40625 121.8671875 C180.69499023 121.86887939 180.69499023 121.86887939 182.00976562 121.87060547 C184 122 184 122 185 123 C185.0979057 124.49738124 185.12974864 125.99942892 185.125 127.5 C185.12757813 128.3146875 185.13015625 129.129375 185.1328125 129.96875 C185 132 185 132 184 133 C180.7901307 133.26998901 177.58769141 133.44611437 174.37109375 133.60546875 C170.89055723 133.4970552 170.89055723 133.4970552 168 135 C167.67799663 136.74467283 167.39230357 138.49611339 167.125 140.25 C166.24923861 145.21479438 165.45370087 149.09156599 161.3125 152.3125 C157.09193871 153.56726146 153.09838362 153.83035453 148.99609375 152.20703125 C145.81436886 150.47335652 144.02388722 149.03583084 142 146 C140.68 146.33 139.36 146.66 138 147 C136.39719075 152.61711607 135.76598686 157.45261122 135.90234375 163.26953125 C135.90640849 164.83398031 135.90829319 166.39843628 135.90820312 167.96289062 C135.91627987 170.38616025 135.93734564 172.80616095 135.99633789 175.22875977 C136.32905646 190.43012964 136.32905646 190.43012964 130.88671875 197.20703125 C129.30091569 198.84747927 127.67395309 200.44960582 126 202 C125.34862061 202.65170166 124.69724121 203.30340332 124.02612305 203.97485352 C121.77234492 206.20765766 119.45271111 208.35556676 117.09375 210.4765625 C113.85124338 213.4511274 113.85124338 213.4511274 112.88671875 217.5703125 C116.84790828 226.21543492 124.35875018 231.64644637 133 235 C136.26177142 236.08725714 138.8795344 236.27205063 142.3125 236.375 C143.97732422 236.44847656 143.97732422 236.44847656 145.67578125 236.5234375 C149.90164117 235.85802595 152.28212561 234.17640999 155 231 C156.6880639 228.39392734 158.03347277 225.67202217 159.375 222.875 C170.12421678 201.65119804 185.82491155 189.2695698 208 181 C210.3232956 180.28469679 212.65299446 179.63577112 215 179 C216.06385909 143.79226424 216.06385909 143.79226424 204.75390625 110.953125 C202.75140157 105.76528903 205.63620041 99.82997393 207.5 94.9375 C209.88754193 88.65632137 211.12931344 83.08752754 211.11352539 76.36181641 C211.11344986 75.28114899 211.11337433 74.20048157 211.11329651 73.08706665 C211.10813522 71.93685028 211.10297394 70.78663391 211.09765625 69.6015625 C211.0962413 68.41146576 211.09482635 67.22136902 211.09336853 65.99520874 C211.0877842 62.20511328 211.07523451 58.41507752 211.0625 54.625 C211.05748298 52.0507821 211.05292042 49.47656328 211.04882812 46.90234375 C211.03781989 40.60154223 211.02109731 34.30077538 211 28 C206.99242245 29.85017572 204.23805704 32.48954379 201.16796875 35.6015625 C200.61313309 36.15685638 200.05829742 36.71215027 199.48664856 37.28427124 C198.31351211 38.46042442 197.14280271 39.63900276 195.97436523 40.81982422 C194.20924266 42.60303454 192.43641977 44.37828024 190.66210938 46.15234375 C185.43722564 51.39400567 180.29873844 56.65036794 175.49194336 62.28320312 C173.01890588 65.12895661 170.36251202 67.78298615 167.6875 70.4375 C167.16349609 70.96537109 166.63949219 71.49324219 166.09960938 72.03710938 C161.84064601 76.28516631 160.03596416 77.15264898 154.0625 77.1875 C149.3113069 77.16367255 144.77163021 76.89839938 140.05395508 76.28149414 C115.37431128 73.09318834 88.06892852 73.49994841 63.50927734 77.39501953 C62.72633301 77.51345215 61.94338867 77.63188477 61.13671875 77.75390625 C60.45697998 77.87193604 59.77724121 77.98996582 59.0769043 78.11157227 C52.6813901 77.76800227 47.8708473 71.14100795 43.6640625 66.89453125 C42.86648529 66.09649582 42.06890808 65.29846039 41.24716187 64.47624207 C39.5621405 62.7882039 37.87954596 61.09774023 36.19921875 59.4050293 C33.64630167 56.83395319 31.08557168 54.2708721 28.5234375 51.70898438 C26.88234189 50.06296907 25.24170218 48.41649908 23.6015625 46.76953125 C22.84404694 46.01090286 22.08653137 45.25227448 21.30606079 44.47065735 C17.21010739 40.33861563 13.31286 36.1348816 9.61947632 31.63700867 C7.8759502 29.87460725 6.26360318 28.97684285 4 28 Z " fill="#182D3D" transform="translate(101,8)"/>
<path d="M0 0 C4.1117256 -0.02465746 8.22342278 -0.04283959 12.33520508 -0.05493164 C13.73495228 -0.0599708 15.1346942 -0.06680216 16.53442383 -0.07543945 C18.54245777 -0.0875232 20.55052957 -0.09269807 22.55859375 -0.09765625 C24.37315063 -0.10551147 24.37315063 -0.10551147 26.22436523 -0.11352539 C29 0 29 0 30 1 C30.12337174 2.84031989 30.17791308 4.68529411 30.20532227 6.52954102 C30.22526749 7.71068985 30.24521271 8.89183868 30.26576233 10.10877991 C30.28247482 11.3941716 30.29918732 12.67956329 30.31640625 14.00390625 C30.33718735 15.31205795 30.35796844 16.62020966 30.37937927 17.96800232 C30.434663 21.45155447 30.48404431 24.9351666 30.53222656 28.41882324 C30.58239574 31.9713273 30.63810567 35.5237439 30.69335938 39.07617188 C30.80101791 46.05070546 30.90244567 53.02531798 31 60 C31.91980904 59.16576759 31.91980904 59.16576759 32.85820007 58.31468201 C34.0686071 57.22583458 34.0686071 57.22583458 35.3034668 56.11499023 C36.10229782 55.3938353 36.90112885 54.67268036 37.72416687 53.92967224 C40.27372643 51.76790816 42.72346113 50.33339301 45.8125 49.0625 C47.15248047 48.49208984 47.15248047 48.49208984 48.51953125 47.91015625 C59.51121827 43.87698605 74.69024391 44.36475497 85.4375 48.74609375 C101.86634334 56.78520764 110.57946188 67.99845645 117.01953125 84.921875 C122.5724765 102.35502583 119.79155546 123.10680629 112.1875 139.375 C104.54014993 153.5501129 93.4434391 162.97920122 78 168 C65.3598161 171.36779986 50.5256019 170.0100993 39 164 C34.54852509 161.14681061 30.94407982 158.41611973 28 154 C27.93941406 154.78246094 27.87882812 155.56492188 27.81640625 156.37109375 C27.73261719 157.38300781 27.64882813 158.39492187 27.5625 159.4375 C27.48128906 160.44683594 27.40007812 161.45617187 27.31640625 162.49609375 C27 165 27 165 26 166 C24.15840977 166.09959621 22.31303033 166.13080411 20.46875 166.1328125 C19.34855469 166.13410156 18.22835938 166.13539063 17.07421875 166.13671875 C15.89472656 166.13285156 14.71523438 166.12898437 13.5 166.125 C11.73076172 166.13080078 11.73076172 166.13080078 9.92578125 166.13671875 C8.24548828 166.13478516 8.24548828 166.13478516 6.53125 166.1328125 C5.49548828 166.13168457 4.45972656 166.13055664 3.39257812 166.12939453 C1 166 1 166 0 165 C-0.09690407 162.87373202 -0.12186822 160.74418181 -0.12025452 158.6157074 C-0.12110894 157.94106683 -0.12196337 157.26642627 -0.12284368 156.57134205 C-0.12450039 154.29419838 -0.11897404 152.0171272 -0.11352539 149.73999023 C-0.11324353 148.11424766 -0.11340122 146.48850495 -0.1139679 144.86276245 C-0.11425593 140.43526587 -0.10835827 136.00779613 -0.10139394 131.58030581 C-0.09516136 126.95849158 -0.09455668 122.3366768 -0.09336853 117.71485901 C-0.09025493 108.95651763 -0.08204115 100.19818867 -0.07201904 91.43985277 C-0.0608588 81.47145987 -0.05534768 71.50306639 -0.05032361 61.5346688 C-0.03985856 41.02310559 -0.02225857 20.51155358 0 0 Z " fill="#182E3E" transform="translate(396,51)"/>
<path d="M0 0 C10.23 0 20.46 0 31 0 C36.15477934 13.11375865 41.09965638 26.29253596 45.94384766 39.52392578 C47.12870319 42.76011451 48.31608945 45.9953659 49.50390625 49.23046875 C53.38309842 59.80368091 57.24414425 70.38225915 61 81 C63.98609109 74.56874109 66.49966219 68.05397523 68.828125 61.359375 C69.18082458 60.35650452 69.53352417 59.35363403 69.89691162 58.32037354 C71.01811366 55.13146649 72.13453492 51.9409179 73.25 48.75 C77.53400532 36.50673381 81.83324591 24.27376798 86.421875 12.140625 C86.75286194 11.25969177 87.08384888 10.37875854 87.42486572 9.47113037 C87.73422058 8.66113586 88.04357544 7.85114136 88.36230469 7.01660156 C88.63129578 6.31005432 88.90028687 5.60350708 89.1774292 4.87554932 C90 3 90 3 92 0 C94.88916016 -0.34057617 94.88916016 -0.34057617 98.5390625 -0.29296875 C100.49199219 -0.2784668 100.49199219 -0.2784668 102.484375 -0.26367188 C103.86458923 -0.23860388 105.24479756 -0.21320902 106.625 -0.1875 C108.01300663 -0.17245517 109.40102867 -0.15876641 110.7890625 -0.14648438 C114.19309509 -0.1110257 117.59635622 -0.06160298 121 0 C120.42735912 4.09727937 119.51113299 7.63583302 117.9453125 11.4609375 C117.50525879 12.54721436 117.06520508 13.63349121 116.61181641 14.75268555 C115.87584229 16.5457312 115.87584229 16.5457312 115.125 18.375 C114.02835769 21.07565341 112.93637348 23.77818736 111.84375 26.48046875 C111.54562408 27.21608536 111.24749817 27.95170197 110.94033813 28.70960999 C107.18907393 37.97710621 103.52538109 47.27924883 99.85348511 56.57839966 C98.62031022 59.69936909 97.38490994 62.81944786 96.14868164 65.93920898 C91.06400012 78.77036333 91.06400012 78.77036333 86.01667786 91.61624146 C80.55457613 105.57233806 75.02393772 119.47509766 68.6875 133.0625 C68.24414307 134.03759521 67.80078613 135.01269043 67.34399414 136.01733398 C61.36896298 148.43055154 52.05854027 157.67881481 39.0625 162.375 C30.80423861 164.74851456 22.50213507 164.34352061 14 164 C13.97113249 159.85418113 13.95324673 155.70838784 13.9375 151.5625 C13.92912109 150.37849609 13.92074219 149.19449219 13.91210938 147.97460938 C13.90888672 146.84990234 13.90566406 145.72519531 13.90234375 144.56640625 C13.89710693 143.52427979 13.89187012 142.48215332 13.88647461 141.40844727 C14 139 14 139 15 138 C17.18379112 137.70072876 19.37235178 137.43601099 21.5625 137.1875 C29.24444247 136.11796126 34.30219202 134.69780798 39.8125 129.1875 C43.48078075 123.84229091 45.44521211 119.5092217 45 113 C44.08879489 109.92962738 44.08879489 109.92962738 42.71875 106.78515625 C42.35168442 105.89270454 42.35168442 105.89270454 41.97720337 104.98222351 C41.16122639 103.00478022 40.33059426 101.03384304 39.5 99.0625 C38.91285707 97.64724201 38.32678229 96.23154049 37.74169922 94.81542969 C36.48858985 91.785875 35.22999213 88.75868037 33.96777344 85.73291016 C31.9921329 80.99031794 30.04380215 76.23682086 28.1015625 71.48046875 C27.44151399 69.86506084 26.78143898 68.24966376 26.12133789 66.63427734 C25.62804489 65.42708038 25.62804489 65.42708038 25.12478638 64.19549561 C20.69227909 53.35350241 16.23234573 42.52427276 11.68359375 31.73046875 C10.9848387 30.06869523 10.28610784 28.40691154 9.58740234 26.74511719 C8.26821724 23.60849503 6.94052988 20.47566055 5.60791016 17.34472656 C5.01044893 15.9265558 4.4132655 14.50826797 3.81640625 13.08984375 C3.54428818 12.45725143 3.2721701 11.82465912 2.99180603 11.17289734 C1.37493023 7.30654042 0.70971404 4.25828427 0 0 Z " fill="#182E3E" transform="translate(577,100)"/>
<path d="M0 0 C0.97090576 0.00757324 1.94181152 0.01514648 2.94213867 0.02294922 C9.9665579 0.18467436 15.90943589 0.9567841 22.125 4.4375 C22.91777344 4.87320313 23.71054687 5.30890625 24.52734375 5.7578125 C33.83543642 11.42630155 39.59572557 19.02869038 42.7191925 29.41294861 C44.78155265 38.26919669 44.39463253 47.28135093 44.35546875 56.31640625 C44.35427496 58.13817818 44.35382421 59.95995072 44.3540802 61.78172302 C44.35252408 65.57823603 44.3442958 69.37465356 44.33081055 73.17114258 C44.31371254 78.04714514 44.30999977 82.92304418 44.31075573 87.79907322 C44.31048466 91.55042007 44.30501548 95.30174412 44.29775429 99.05308342 C44.29456592 100.85250616 44.29259982 102.65193148 44.29186058 104.45135689 C44.28970495 106.95272421 44.28098098 109.45397894 44.27026367 111.95532227 C44.27071686 112.7027771 44.27117004 113.45023193 44.27163696 114.22033691 C44.23948544 119.32301456 44.23948544 119.32301456 43.125 120.4375 C41.05237924 120.52517112 38.97679706 120.54445873 36.90234375 120.53515625 C35.01225586 120.53032227 35.01225586 120.53032227 33.08398438 120.52539062 C31.74348891 120.51703403 30.40299412 120.50856907 29.0625 120.5 C27.71810058 120.4949866 26.3736994 120.49042342 25.02929688 120.48632812 C21.72782059 120.47449488 18.42643197 120.45800971 15.125 120.4375 C15.11913376 119.53262848 15.11326752 118.62775696 15.10722351 117.69546509 C15.04912233 109.13361351 14.9769467 100.57201797 14.88928509 92.01041603 C14.84471385 87.60966477 14.80542921 83.20900326 14.77856445 78.80810547 C14.75239844 74.55446238 14.71190395 70.30116717 14.66181374 66.04774094 C14.64523437 64.43163787 14.63366484 62.81547476 14.62738609 61.19929886 C14.58551585 51.4051338 14.35009411 42.37167316 9.5625 33.5625 C2.8226616 27.68674344 -4.89119046 26.76572875 -13.6015625 27.05859375 C-19.88597948 27.78602626 -23.85508727 30.09230542 -28.1875 34.625 C-34.8367585 43.44591101 -34.33016602 53.47829221 -34.3515625 64.03125 C-34.3658917 65.63026226 -34.38165213 67.22926227 -34.39877319 68.82824707 C-34.44039073 73.01002592 -34.4655506 77.19172869 -34.48626709 81.37365723 C-34.52226675 88.09455426 -34.58294321 94.8152646 -34.64475632 101.53596497 C-34.66387433 103.88314765 -34.67557783 106.23027985 -34.68618774 108.57751465 C-34.69639175 110.00415156 -34.70674897 111.43078738 -34.71728516 112.85742188 C-34.72378082 114.10712769 -34.73027649 115.3568335 -34.73696899 116.64440918 C-34.875 119.4375 -34.875 119.4375 -35.875 120.4375 C-37.86257028 120.53733058 -39.8536752 120.56830753 -41.84375 120.5703125 C-43.05417969 120.57160156 -44.26460937 120.57289063 -45.51171875 120.57421875 C-46.78660156 120.57035156 -48.06148437 120.56648438 -49.375 120.5625 C-50.64988281 120.56636719 -51.92476562 120.57023437 -53.23828125 120.57421875 C-54.44871094 120.57292969 -55.65914062 120.57164062 -56.90625 120.5703125 C-58.02580078 120.56918457 -59.14535156 120.56805664 -60.29882812 120.56689453 C-62.875 120.4375 -62.875 120.4375 -63.875 119.4375 C-63.97075309 117.93198826 -63.99688187 116.4219897 -63.99525452 114.91343689 C-63.99662918 113.93602036 -63.99800385 112.95860382 -63.99942017 111.9515686 C-63.99582489 110.87047821 -63.99222961 109.78938782 -63.98852539 108.67553711 C-63.98867142 107.5439769 -63.98881744 106.41241669 -63.9889679 105.24656677 C-63.98826819 101.48597329 -63.98047311 97.72542863 -63.97265625 93.96484375 C-63.97079227 91.36552457 -63.96936828 88.76620503 -63.96836853 86.16688538 C-63.96493341 80.01161423 -63.95704256 73.8563634 -63.94701904 67.70109993 C-63.93585694 60.69516654 -63.93034721 53.68923233 -63.92532361 46.68329227 C-63.91485992 32.26801711 -63.89651482 17.8527628 -63.875 3.4375 C-54.965 3.4375 -46.055 3.4375 -36.875 3.4375 C-36.38 10.3675 -36.38 10.3675 -35.875 17.4375 C-34.905625 16.24125 -33.93625 15.045 -32.9375 13.8125 C-23.92303194 3.56466408 -13.41165819 -0.14634701 0 0 Z " fill="#193041" transform="translate(774.875,96.5625)"/>
<path d="M0 0 C27.06122733 -3.47937018 27.06122733 -3.47937018 34.74462891 1.93359375 C39.23978031 7.0295075 42.03326538 12.98863409 44.72412109 19.18212891 C46.52476251 23.15897607 48.8207554 26.69817467 51.25 30.3125 C51.93578125 31.40175781 52.6215625 32.49101562 53.328125 33.61328125 C54.77941887 36.08804004 54.77941887 36.08804004 57 37 C57.26192139 36.28755127 57.52384277 35.57510254 57.79370117 34.84106445 C59.05989179 31.85894337 60.57177406 29.28157354 62.30078125 26.54296875 C63.27241211 24.99706055 63.27241211 24.99706055 64.26367188 23.41992188 C64.93978516 22.35322266 65.61589844 21.28652344 66.3125 20.1875 C66.97701172 19.13240234 67.64152344 18.07730469 68.32617188 16.99023438 C69.62670679 14.92558696 70.94336463 12.87099449 72.27709961 10.82763672 C74.02949515 8.12369234 74.02949515 8.12369234 75.02172852 5.47314453 C76.09966291 2.94404762 76.78280517 1.6500527 79 0 C84.46827835 -0.99024976 89.78326197 -0.75287422 95.3125 -0.5 C96.83128707 -0.45984872 98.35017541 -0.42335074 99.86914062 -0.390625 C103.58153811 -0.30268966 107.29012855 -0.16478459 111 0 C109.79385088 3.22545596 108.48473004 6.00767032 106.5234375 8.8359375 C105.77622437 9.92092529 105.77622437 9.92092529 105.01391602 11.02783203 C104.47307373 11.80239746 103.93223145 12.57696289 103.375 13.375 C102.81031006 14.19210449 102.24562012 15.00920898 101.66381836 15.85107422 C99.78149126 18.57132401 97.89142726 21.28607076 96 24 C94.59758748 26.01557715 93.19524522 28.03120319 91.79296875 30.046875 C89.71702107 33.0307824 87.64009054 36.01395385 85.55810547 38.99365234 C84.29709699 40.8004276 83.04194991 42.61131166 81.79345703 44.42675781 C80.59969775 46.139557 79.37643757 47.83217418 78.12451172 49.50292969 C77.27203857 50.6732373 77.27203857 50.6732373 76.40234375 51.8671875 C75.89050537 52.5463623 75.37866699 53.22553711 74.85131836 53.92529297 C73.7282441 56.05285743 73.7282441 56.05285743 74.73388672 58.57104492 C76.35024553 61.67192303 78.2173467 64.55507063 80.1875 67.4375 C80.61748291 68.07437744 81.04746582 68.71125488 81.49047852 69.36743164 C82.98832618 71.58194783 84.49391647 73.79107748 86 76 C87.20321637 77.77077126 88.40633692 79.54160762 89.609375 81.3125 C90.88509912 83.18771607 92.16114549 85.06271295 93.4375 86.9375 C94.39221191 88.33983887 94.39221191 88.33983887 95.36621094 89.77050781 C98.35445087 94.1515327 101.35619125 98.52111497 104.40625 102.859375 C104.92131104 103.59551025 105.43637207 104.33164551 105.96704102 105.09008789 C106.92246726 106.45287502 107.88359258 107.81169066 108.85131836 109.16577148 C112 113.66570431 112 113.66570431 112 117 C104.15031638 117.64521833 96.32169685 118.04800685 88.4453125 117.83984375 C87.15383301 117.815271 85.86235352 117.79069824 84.53173828 117.76538086 C79.77696147 116.73494914 78.48559008 115.18053613 75.4375 111.4375 C74.40600586 109.47705078 74.40600586 109.47705078 73.83984375 107.6328125 C71.60960509 101.52799511 67.96039233 96.27980877 64.5 90.8125 C63.27433281 88.82325587 62.05511424 86.83001748 60.84375 84.83203125 C60.31974609 83.97327393 59.79574219 83.1145166 59.25585938 82.22973633 C58 80 58 80 57 77 C56.34 77 55.68 77 55 77 C54.77707275 77.66225586 54.55414551 78.32451172 54.32446289 79.00683594 C52.57744485 82.9549357 50.24329921 86.33647933 47.80859375 89.890625 C47.30328629 90.63584412 46.79797882 91.38106323 46.27735901 92.14886475 C44.66849268 94.51894906 43.05296187 96.88440778 41.4375 99.25 C40.34659426 100.85649185 39.2560949 102.46325974 38.16601562 104.0703125 C37.13057172 105.59399701 36.09477671 107.11744299 35.05859375 108.640625 C34.56693222 109.36348694 34.07527069 110.08634888 33.56871033 110.83111572 C30.11865217 115.88134783 30.11865217 115.88134783 29 117 C26.85441173 117.08775605 24.70595579 117.10695219 22.55859375 117.09765625 C21.25341797 117.09443359 19.94824219 117.09121094 18.60351562 117.08789062 C17.2148431 117.07953401 15.82617123 117.07106905 14.4375 117.0625 C13.04492344 117.05748666 11.65234519 117.05292347 10.25976562 117.04882812 C6.8398013 117.03699434 3.41992156 117.0205088 0 117 C-0.33 116.34 -0.66 115.68 -1 115 C8.08844642 101.31517171 17.20276664 87.64915309 26.4375 74.0625 C27.15220459 73.01006104 27.86690918 71.95762207 28.60327148 70.87329102 C29.26915283 69.89545654 29.93503418 68.91762207 30.62109375 67.91015625 C31.2030249 67.05558838 31.78495605 66.20102051 32.38452148 65.32055664 C34 63 34 63 35.74658203 60.84130859 C36.16020996 60.23367676 36.57383789 59.62604492 37 59 C36.00014261 54.81439009 33.4556385 51.46622268 31.0625 47.9375 C30.64645508 47.32116699 30.23041016 46.70483398 29.80175781 46.06982422 C28.20623266 43.70975353 26.60284566 41.35510539 25 39 C23.44109261 36.70203484 21.88248577 34.40386801 20.32421875 32.10546875 C17.40940142 27.80679739 14.49236487 23.50965308 11.5717926 19.21488953 C10.41809989 17.51699736 9.26641285 15.8177616 8.11523438 14.11816406 C6.77843354 12.1475246 5.43662825 10.18026246 4.08789062 8.21777344 C3.26321289 7.00782715 3.26321289 7.00782715 2.421875 5.7734375 C1.9484668 5.08427246 1.47505859 4.39510742 0.98730469 3.68505859 C0 2 0 2 0 0 Z " fill="#182E3E" transform="translate(835,100)"/>
<path d="M0 0 C9.57 0 19.14 0 29 0 C29 54.78 29 109.56 29 166 C19.76 166 10.52 166 1 166 C0 165 0 165 -0.12304783 162.30008602 C-0.12212604 161.08424108 -0.12120424 159.86839613 -0.12025452 158.6157074 C-0.12110894 157.94106683 -0.12196337 157.26642627 -0.12284368 156.57134205 C-0.12450039 154.29419838 -0.11897404 152.0171272 -0.11352539 149.73999023 C-0.11324353 148.11424766 -0.11340122 146.48850495 -0.1139679 144.86276245 C-0.11425593 140.43526587 -0.10835827 136.00779613 -0.10139394 131.58030581 C-0.09516136 126.95849158 -0.09455668 122.3366768 -0.09336853 117.71485901 C-0.09025493 108.95651763 -0.08204115 100.19818867 -0.07201904 91.43985277 C-0.0608588 81.47145987 -0.05534768 71.50306639 -0.05032361 61.5346688 C-0.03985856 41.02310541 -0.02205818 20.51155392 0 0 Z " fill="#172D3D" transform="translate(531,51)"/>
<path d="M0 0 C8.22286754 5.65830984 12.75147172 12.73495588 15.3125 22.3125 C17.45066005 33.99014338 16.58668911 46.5566942 10.375 56.875 C5.64700783 63.33932676 -1.08696253 67.68116042 -9 69 C-18.65939148 69.81235355 -26.69394243 69.18458799 -34.4765625 63.046875 C-42.22448015 55.8289452 -45.80880549 48.05530536 -46.23828125 37.5234375 C-46.49967413 25.49586421 -46.2187861 15.85828113 -38.375 6.125 C-28.49873556 -3.96872348 -12.76347169 -7.20675112 0 0 Z " fill="#FCFBF5" transform="translate(470,125)"/>
<path d="M0 0 C2.85505551 1.32690906 5.17834872 2.83956205 7.625 4.8125 C13.52670087 9.32426758 20.10918229 12.30731813 27 15 C22.17744125 20.62631854 15.36490559 24.69158271 8 26 C-3.16772177 26.810025 -13.29367924 26.24140192 -22.1875 18.75 C-23.115625 17.8425 -24.04375 16.935 -25 16 C-22.22067104 13.22067104 -18.8205645 11.91585827 -15.3125 10.25 C-9.4834013 7.42361318 -4.62270292 4.62270292 0 0 Z " fill="#FAFAF6" transform="translate(207,242)"/>
<path d="M0 0 C8.91 0 17.82 0 27 0 C27 4.95 27 9.9 27 15 C26.67 15 26.34 15 26 15 C26 10.38 26 5.76 26 1 C17.75 1 9.5 1 1 1 C1 38.62 1 76.24 1 115 C9.58 115 18.16 115 27 115 C26.99476318 112.99655518 26.98952637 110.99311035 26.98413086 108.92895508 C26.9675475 102.30328051 26.95650974 95.67760501 26.94818783 89.05191517 C26.94297333 85.03549411 26.93590172 81.01909435 26.92456055 77.00268555 C26.91368072 73.12531513 26.90771236 69.24796518 26.90512276 65.37058067 C26.90327769 63.89264288 26.89967476 62.41470618 26.89426994 60.93677711 C26.88699188 58.86383281 26.88601191 56.79097264 26.88647461 54.71801758 C26.884254 53.53887283 26.88203339 52.35972809 26.87974548 51.14485168 C26.98836526 48.30426739 27.34602724 45.7598529 28 43 C28.33 43 28.66 43 29 43 C29.02312484 52.50074325 29.0409158 62.00147688 29.05181217 71.50224209 C29.05704069 75.91337004 29.06413777 80.3244788 29.07543945 84.7355957 C29.08626944 88.98901115 29.09227707 93.24240809 29.09487724 97.49583626 C29.09673129 99.12221633 29.10035152 100.74859534 29.10573006 102.37496758 C29.11294198 104.64510193 29.11399088 106.91515885 29.11352539 109.18530273 C29.115746 110.47991928 29.11796661 111.77453583 29.12025452 113.10838318 C29 116 29 116 28 117 C26.01242972 117.09983058 24.0213248 117.13080753 22.03125 117.1328125 C20.82082031 117.13410156 19.61039063 117.13539063 18.36328125 117.13671875 C17.08839844 117.13285156 15.81351563 117.12898438 14.5 117.125 C13.22511719 117.12886719 11.95023438 117.13273437 10.63671875 117.13671875 C9.42628906 117.13542969 8.21585938 117.13414062 6.96875 117.1328125 C5.84919922 117.13168457 4.72964844 117.13055664 3.57617188 117.12939453 C1 117 1 117 0 116 C-0.09575309 114.49448826 -0.12188187 112.9844897 -0.12025452 111.47593689 C-0.12162918 110.49852036 -0.12300385 109.52110382 -0.12442017 108.5140686 C-0.12082489 107.43297821 -0.11722961 106.35188782 -0.11352539 105.23803711 C-0.11367142 104.1064769 -0.11381744 102.97491669 -0.1139679 101.80906677 C-0.11326819 98.04847329 -0.10547311 94.28792863 -0.09765625 90.52734375 C-0.09579227 87.92802457 -0.09436828 85.32870503 -0.09336853 82.72938538 C-0.08993341 76.57411423 -0.08204256 70.4188634 -0.07201904 64.26359993 C-0.06085694 57.25766654 -0.05534721 50.25173233 -0.05032361 43.24579227 C-0.03985992 28.83051711 -0.02151482 14.4152628 0 0 Z " fill="#06121E" transform="translate(711,100)"/>
<path d="M0 0 C2.47705361 3.71558042 2.27493313 6.55436354 2.24291992 10.85205078 C2.24481827 11.65067535 2.24671661 12.44929993 2.24867249 13.27212524 C2.25237896 15.91328734 2.2416795 18.55417483 2.23046875 21.1953125 C2.22927696 23.02708911 2.22882379 24.85886633 2.2290802 26.69064331 C2.22751566 30.52898993 2.21922692 34.36724325 2.20581055 38.20556641 C2.1887968 43.13669909 2.18499689 48.06772942 2.18575573 52.99888802 C2.18548445 56.78027329 2.18001047 60.56163598 2.17275429 64.34301376 C2.16956259 66.16197412 2.16759905 67.98093705 2.16686058 69.79990005 C2.16470365 72.33555762 2.15597427 74.87110434 2.14526367 77.40673828 C2.14594345 78.5444165 2.14594345 78.5444165 2.14663696 79.70507812 C2.11447608 84.88552392 2.11447608 84.88552392 1 86 C-8.24 86 -17.48 86 -27 86 C-27 61.25 -27 36.5 -27 11 C-26.67 11 -26.34 11 -26 11 C-26 35.09 -26 59.18 -26 84 C-17.42 84 -8.84 84 0 84 C0 56.28 0 28.56 0 0 Z " fill="#0E1D2B" transform="translate(817,131)"/>
<path d="M0 0 C0.66 0.33 1.32 0.66 2 1 C2 1.99 2 2.98 2 4 C-8.23 4 -18.46 4 -29 4 C-29 3.01 -29 2.02 -29 1 C-19.43 1.33 -9.86 1.66 0 2 C0 1.34 0 0.68 0 0 Z " fill="#0E2232" transform="translate(945,213)"/>
<path d="M0 0 C0.33 0.66 0.66 1.32 1 2 C10.24 2 19.48 2 29 2 C28.67 2.99 28.34 3.98 28 5 C18.43 5 8.86 5 -1 5 C-1.33 4.34 -1.66 3.68 -2 3 C-1.34 2.01 -0.68 1.02 0 0 Z " fill="#0C202F" transform="translate(836,212)"/>
<path d="M0 0 C3.21587695 2.77565625 3.56830738 5.08992022 3.90966797 9.31201172 C4.08089275 14.40710584 3.82932368 19.4744485 3.5625 24.5625 C3.51029297 25.66658203 3.45808594 26.77066406 3.40429688 27.90820312 C3.27583791 30.60584136 3.14093867 33.3029899 3 36 C2.67 36 2.34 36 2 36 C1.97494385 35.37134033 1.9498877 34.74268066 1.92407227 34.0949707 C1.24431177 17.03045769 1.24431177 17.03045769 0 0 Z " fill="#081625" transform="translate(178,155)"/>
<path d="M0 0 C6.6 0 13.2 0 20 0 C20 0.99 20 1.98 20 3 C17.04112541 3.08069658 14.0844341 3.14034665 11.125 3.1875 C10.28324219 3.21263672 9.44148437 3.23777344 8.57421875 3.26367188 C7.76855469 3.27333984 6.96289062 3.28300781 6.1328125 3.29296875 C5.38918457 3.3086792 4.64555664 3.32438965 3.87939453 3.34057617 C2.94909424 3.17199097 2.94909424 3.17199097 2 3 C1.34 2.01 0.68 1.02 0 0 Z " fill="#253B4A" transform="translate(133,129)"/>
<path d="M0 0 C0.33 0.99 0.66 1.98 1 3 C-0.26451932 4.31858428 -1.53685475 5.62967631 -2.8125 6.9375 C-3.52019531 7.66839844 -4.22789062 8.39929688 -4.95703125 9.15234375 C-7 11 -7 11 -10 12 C-9.42541562 8.43442842 -8.14644352 6.78900304 -5.5625 4.3125 C-4.94503906 3.71050781 -4.32757812 3.10851562 -3.69140625 2.48828125 C-2 1 -2 1 0 0 Z " fill="#10212F" transform="translate(750,103)"/>
<path d="M0 0 C1.95825873 -0.02694851 3.91662226 -0.04637218 5.875 -0.0625 C6.96554687 -0.07410156 8.05609375 -0.08570312 9.1796875 -0.09765625 C12 0 12 0 14 1 C14 1.66 14 2.32 14 3 C9.71 3 5.42 3 1 3 C0.67 2.01 0.34 1.02 0 0 Z " fill="#DADDDC" transform="translate(455,94)"/>
</svg>
